<mxfile host="app.diagrams.net" modified="2024-03-05T02:03:39.438Z" agent="Mozilla/5.0 (Windows NT 10.0; Win64; x64) AppleWebKit/537.36 (KHTML, like Gecko) Chrome/121.0.0.0 Safari/537.36 Edg/121.0.0.0" etag="gblDmPH-CBBdPFg_LGs_" version="23.1.7" type="github">
  <diagram id="C5RBs43oDa-KdzZeNtuy" name="Page-1">
    <mxGraphModel dx="1186" dy="571" grid="1" gridSize="10" guides="1" tooltips="1" connect="1" arrows="1" fold="1" page="1" pageScale="1" pageWidth="827" pageHeight="1169" math="0" shadow="0">
      <root>
        <mxCell id="WIyWlLk6GJQsqaUBKTNV-0" />
        <mxCell id="WIyWlLk6GJQsqaUBKTNV-1" parent="WIyWlLk6GJQsqaUBKTNV-0" />
        <mxCell id="WIyWlLk6GJQsqaUBKTNV-2" value="" style="rounded=0;html=1;jettySize=auto;orthogonalLoop=1;fontSize=11;endArrow=block;endFill=0;endSize=8;strokeWidth=1;shadow=0;labelBackgroundColor=none;edgeStyle=orthogonalEdgeStyle;" parent="WIyWlLk6GJQsqaUBKTNV-1" source="WIyWlLk6GJQsqaUBKTNV-3" target="WIyWlLk6GJQsqaUBKTNV-6" edge="1">
          <mxGeometry relative="1" as="geometry" />
        </mxCell>
        <mxCell id="WIyWlLk6GJQsqaUBKTNV-3" value="Start" style="rounded=1;whiteSpace=wrap;html=1;fontSize=12;glass=0;strokeWidth=1;shadow=0;" parent="WIyWlLk6GJQsqaUBKTNV-1" vertex="1">
          <mxGeometry x="160" y="80" width="120" height="40" as="geometry" />
        </mxCell>
        <mxCell id="WIyWlLk6GJQsqaUBKTNV-4" value="No" style="rounded=0;html=1;jettySize=auto;orthogonalLoop=1;fontSize=11;endArrow=block;endFill=0;endSize=8;strokeWidth=1;shadow=0;labelBackgroundColor=none;edgeStyle=orthogonalEdgeStyle;" parent="WIyWlLk6GJQsqaUBKTNV-1" source="WIyWlLk6GJQsqaUBKTNV-6" target="WIyWlLk6GJQsqaUBKTNV-10" edge="1">
          <mxGeometry x="-0.0526" y="-20" relative="1" as="geometry">
            <mxPoint as="offset" />
          </mxGeometry>
        </mxCell>
        <mxCell id="WIyWlLk6GJQsqaUBKTNV-5" value="Yes" style="edgeStyle=orthogonalEdgeStyle;rounded=0;html=1;jettySize=auto;orthogonalLoop=1;fontSize=11;endArrow=block;endFill=0;endSize=8;strokeWidth=1;shadow=0;labelBackgroundColor=none;" parent="WIyWlLk6GJQsqaUBKTNV-1" source="WIyWlLk6GJQsqaUBKTNV-6" edge="1">
          <mxGeometry y="10" relative="1" as="geometry">
            <mxPoint as="offset" />
            <mxPoint x="320" y="210" as="targetPoint" />
          </mxGeometry>
        </mxCell>
        <mxCell id="WIyWlLk6GJQsqaUBKTNV-6" value="&lt;font style=&quot;font-size: 12px;&quot;&gt;Computer&lt;br&gt;choose Rock?&lt;/font&gt;" style="rhombus;whiteSpace=wrap;html=1;shadow=0;fontFamily=Helvetica;fontSize=12;align=center;strokeWidth=1;spacing=6;spacingTop=-4;" parent="WIyWlLk6GJQsqaUBKTNV-1" vertex="1">
          <mxGeometry x="165" y="165" width="110" height="90" as="geometry" />
        </mxCell>
        <mxCell id="16mwcuF6Vt4R83JFXZmN-2" value="" style="edgeStyle=orthogonalEdgeStyle;rounded=0;orthogonalLoop=1;jettySize=auto;html=1;" edge="1" parent="WIyWlLk6GJQsqaUBKTNV-1" source="WIyWlLk6GJQsqaUBKTNV-10" target="16mwcuF6Vt4R83JFXZmN-0">
          <mxGeometry relative="1" as="geometry" />
        </mxCell>
        <mxCell id="16mwcuF6Vt4R83JFXZmN-3" value="No" style="edgeLabel;html=1;align=center;verticalAlign=middle;resizable=0;points=[];" vertex="1" connectable="0" parent="16mwcuF6Vt4R83JFXZmN-2">
          <mxGeometry x="-0.1889" y="-3" relative="1" as="geometry">
            <mxPoint x="-17" y="4" as="offset" />
          </mxGeometry>
        </mxCell>
        <mxCell id="16mwcuF6Vt4R83JFXZmN-41" value="" style="edgeStyle=orthogonalEdgeStyle;rounded=0;orthogonalLoop=1;jettySize=auto;html=1;" edge="1" parent="WIyWlLk6GJQsqaUBKTNV-1" source="WIyWlLk6GJQsqaUBKTNV-10" target="16mwcuF6Vt4R83JFXZmN-20">
          <mxGeometry relative="1" as="geometry" />
        </mxCell>
        <mxCell id="WIyWlLk6GJQsqaUBKTNV-10" value="Computer&lt;br&gt;chose Paper?" style="rhombus;whiteSpace=wrap;html=1;shadow=0;fontFamily=Helvetica;fontSize=12;align=center;strokeWidth=1;spacing=6;spacingTop=-4;" parent="WIyWlLk6GJQsqaUBKTNV-1" vertex="1">
          <mxGeometry x="165" y="435" width="110" height="90" as="geometry" />
        </mxCell>
        <mxCell id="16mwcuF6Vt4R83JFXZmN-42" value="" style="edgeStyle=orthogonalEdgeStyle;rounded=0;orthogonalLoop=1;jettySize=auto;html=1;" edge="1" parent="WIyWlLk6GJQsqaUBKTNV-1" source="16mwcuF6Vt4R83JFXZmN-0" target="16mwcuF6Vt4R83JFXZmN-32">
          <mxGeometry relative="1" as="geometry" />
        </mxCell>
        <mxCell id="16mwcuF6Vt4R83JFXZmN-0" value="Computer&lt;br&gt;chose Scissors?" style="rhombus;whiteSpace=wrap;html=1;shadow=0;fontFamily=Helvetica;fontSize=12;align=center;strokeWidth=1;spacing=6;spacingTop=-4;" vertex="1" parent="WIyWlLk6GJQsqaUBKTNV-1">
          <mxGeometry x="165" y="700" width="110" height="90" as="geometry" />
        </mxCell>
        <mxCell id="16mwcuF6Vt4R83JFXZmN-6" value="" style="edgeStyle=orthogonalEdgeStyle;rounded=0;orthogonalLoop=1;jettySize=auto;html=1;" edge="1" parent="WIyWlLk6GJQsqaUBKTNV-1" source="16mwcuF6Vt4R83JFXZmN-4" target="16mwcuF6Vt4R83JFXZmN-5">
          <mxGeometry relative="1" as="geometry" />
        </mxCell>
        <mxCell id="16mwcuF6Vt4R83JFXZmN-7" value="Yes" style="edgeLabel;html=1;align=center;verticalAlign=middle;resizable=0;points=[];" vertex="1" connectable="0" parent="16mwcuF6Vt4R83JFXZmN-6">
          <mxGeometry x="-0.4727" y="3" relative="1" as="geometry">
            <mxPoint y="-7" as="offset" />
          </mxGeometry>
        </mxCell>
        <mxCell id="16mwcuF6Vt4R83JFXZmN-9" value="" style="edgeStyle=orthogonalEdgeStyle;rounded=0;orthogonalLoop=1;jettySize=auto;html=1;" edge="1" parent="WIyWlLk6GJQsqaUBKTNV-1" source="16mwcuF6Vt4R83JFXZmN-4" target="16mwcuF6Vt4R83JFXZmN-8">
          <mxGeometry relative="1" as="geometry" />
        </mxCell>
        <mxCell id="16mwcuF6Vt4R83JFXZmN-4" value="&lt;font style=&quot;font-size: 12px;&quot;&gt;Human&lt;br&gt;choose Paper?&lt;/font&gt;" style="rhombus;whiteSpace=wrap;html=1;shadow=0;fontFamily=Helvetica;fontSize=12;align=center;strokeWidth=1;spacing=6;spacingTop=-4;" vertex="1" parent="WIyWlLk6GJQsqaUBKTNV-1">
          <mxGeometry x="325" y="165" width="110" height="90" as="geometry" />
        </mxCell>
        <mxCell id="16mwcuF6Vt4R83JFXZmN-44" value="" style="edgeStyle=orthogonalEdgeStyle;rounded=0;orthogonalLoop=1;jettySize=auto;html=1;" edge="1" parent="WIyWlLk6GJQsqaUBKTNV-1" source="16mwcuF6Vt4R83JFXZmN-61" target="16mwcuF6Vt4R83JFXZmN-43">
          <mxGeometry relative="1" as="geometry" />
        </mxCell>
        <mxCell id="16mwcuF6Vt4R83JFXZmN-5" value="Human Wins" style="shape=parallelogram;perimeter=parallelogramPerimeter;whiteSpace=wrap;html=1;fixedSize=1;" vertex="1" parent="WIyWlLk6GJQsqaUBKTNV-1">
          <mxGeometry x="470" y="180" width="120" height="60" as="geometry" />
        </mxCell>
        <mxCell id="16mwcuF6Vt4R83JFXZmN-12" value="" style="edgeStyle=orthogonalEdgeStyle;rounded=0;orthogonalLoop=1;jettySize=auto;html=1;" edge="1" parent="WIyWlLk6GJQsqaUBKTNV-1" source="16mwcuF6Vt4R83JFXZmN-8" target="16mwcuF6Vt4R83JFXZmN-10">
          <mxGeometry relative="1" as="geometry" />
        </mxCell>
        <mxCell id="16mwcuF6Vt4R83JFXZmN-15" value="Yes" style="edgeLabel;html=1;align=center;verticalAlign=middle;resizable=0;points=[];" vertex="1" connectable="0" parent="16mwcuF6Vt4R83JFXZmN-12">
          <mxGeometry x="0.1636" y="1" relative="1" as="geometry">
            <mxPoint x="-7" y="-14" as="offset" />
          </mxGeometry>
        </mxCell>
        <mxCell id="16mwcuF6Vt4R83JFXZmN-14" value="" style="edgeStyle=orthogonalEdgeStyle;rounded=0;orthogonalLoop=1;jettySize=auto;html=1;exitX=0.5;exitY=1;exitDx=0;exitDy=0;" edge="1" parent="WIyWlLk6GJQsqaUBKTNV-1" source="16mwcuF6Vt4R83JFXZmN-8" target="16mwcuF6Vt4R83JFXZmN-13">
          <mxGeometry relative="1" as="geometry">
            <Array as="points">
              <mxPoint x="380" y="400" />
            </Array>
          </mxGeometry>
        </mxCell>
        <mxCell id="16mwcuF6Vt4R83JFXZmN-16" value="No" style="edgeLabel;html=1;align=center;verticalAlign=middle;resizable=0;points=[];" vertex="1" connectable="0" parent="16mwcuF6Vt4R83JFXZmN-14">
          <mxGeometry x="-0.0833" y="3" relative="1" as="geometry">
            <mxPoint x="9" y="-7" as="offset" />
          </mxGeometry>
        </mxCell>
        <mxCell id="16mwcuF6Vt4R83JFXZmN-8" value="&lt;font style=&quot;font-size: 12px;&quot;&gt;Human&lt;br&gt;choose Rock?&lt;/font&gt;" style="rhombus;whiteSpace=wrap;html=1;shadow=0;fontFamily=Helvetica;fontSize=12;align=center;strokeWidth=1;spacing=6;spacingTop=-4;" vertex="1" parent="WIyWlLk6GJQsqaUBKTNV-1">
          <mxGeometry x="325" y="280" width="110" height="90" as="geometry" />
        </mxCell>
        <mxCell id="16mwcuF6Vt4R83JFXZmN-46" value="" style="edgeStyle=orthogonalEdgeStyle;rounded=0;orthogonalLoop=1;jettySize=auto;html=1;" edge="1" parent="WIyWlLk6GJQsqaUBKTNV-1" source="16mwcuF6Vt4R83JFXZmN-10" target="16mwcuF6Vt4R83JFXZmN-45">
          <mxGeometry relative="1" as="geometry" />
        </mxCell>
        <mxCell id="16mwcuF6Vt4R83JFXZmN-10" value="Tie" style="shape=parallelogram;perimeter=parallelogramPerimeter;whiteSpace=wrap;html=1;fixedSize=1;" vertex="1" parent="WIyWlLk6GJQsqaUBKTNV-1">
          <mxGeometry x="470" y="295" width="120" height="60" as="geometry" />
        </mxCell>
        <mxCell id="16mwcuF6Vt4R83JFXZmN-49" value="" style="edgeStyle=orthogonalEdgeStyle;rounded=0;orthogonalLoop=1;jettySize=auto;html=1;" edge="1" parent="WIyWlLk6GJQsqaUBKTNV-1" source="16mwcuF6Vt4R83JFXZmN-13" target="16mwcuF6Vt4R83JFXZmN-48">
          <mxGeometry relative="1" as="geometry" />
        </mxCell>
        <mxCell id="16mwcuF6Vt4R83JFXZmN-13" value="Computer&lt;br&gt;Wins" style="shape=parallelogram;perimeter=parallelogramPerimeter;whiteSpace=wrap;html=1;fixedSize=1;shadow=0;strokeWidth=1;spacing=6;spacingTop=-4;" vertex="1" parent="WIyWlLk6GJQsqaUBKTNV-1">
          <mxGeometry x="460" y="370" width="120" height="60" as="geometry" />
        </mxCell>
        <mxCell id="16mwcuF6Vt4R83JFXZmN-17" value="" style="edgeStyle=orthogonalEdgeStyle;rounded=0;orthogonalLoop=1;jettySize=auto;html=1;" edge="1" parent="WIyWlLk6GJQsqaUBKTNV-1" source="16mwcuF6Vt4R83JFXZmN-20" target="16mwcuF6Vt4R83JFXZmN-21">
          <mxGeometry relative="1" as="geometry" />
        </mxCell>
        <mxCell id="16mwcuF6Vt4R83JFXZmN-18" value="Yes" style="edgeLabel;html=1;align=center;verticalAlign=middle;resizable=0;points=[];" vertex="1" connectable="0" parent="16mwcuF6Vt4R83JFXZmN-17">
          <mxGeometry x="-0.4727" y="3" relative="1" as="geometry">
            <mxPoint y="-7" as="offset" />
          </mxGeometry>
        </mxCell>
        <mxCell id="16mwcuF6Vt4R83JFXZmN-19" value="" style="edgeStyle=orthogonalEdgeStyle;rounded=0;orthogonalLoop=1;jettySize=auto;html=1;" edge="1" parent="WIyWlLk6GJQsqaUBKTNV-1" source="16mwcuF6Vt4R83JFXZmN-20" target="16mwcuF6Vt4R83JFXZmN-26">
          <mxGeometry relative="1" as="geometry" />
        </mxCell>
        <mxCell id="16mwcuF6Vt4R83JFXZmN-20" value="&lt;font style=&quot;font-size: 12px;&quot;&gt;Human&lt;br&gt;choose Scissors?&lt;/font&gt;" style="rhombus;whiteSpace=wrap;html=1;shadow=0;fontFamily=Helvetica;fontSize=12;align=center;strokeWidth=1;spacing=6;spacingTop=-4;" vertex="1" parent="WIyWlLk6GJQsqaUBKTNV-1">
          <mxGeometry x="325" y="435" width="110" height="90" as="geometry" />
        </mxCell>
        <mxCell id="16mwcuF6Vt4R83JFXZmN-52" value="" style="edgeStyle=orthogonalEdgeStyle;rounded=0;orthogonalLoop=1;jettySize=auto;html=1;" edge="1" parent="WIyWlLk6GJQsqaUBKTNV-1" source="16mwcuF6Vt4R83JFXZmN-21" target="16mwcuF6Vt4R83JFXZmN-51">
          <mxGeometry relative="1" as="geometry" />
        </mxCell>
        <mxCell id="16mwcuF6Vt4R83JFXZmN-21" value="Human Wins" style="shape=parallelogram;perimeter=parallelogramPerimeter;whiteSpace=wrap;html=1;fixedSize=1;" vertex="1" parent="WIyWlLk6GJQsqaUBKTNV-1">
          <mxGeometry x="470" y="450" width="120" height="60" as="geometry" />
        </mxCell>
        <mxCell id="16mwcuF6Vt4R83JFXZmN-22" value="" style="edgeStyle=orthogonalEdgeStyle;rounded=0;orthogonalLoop=1;jettySize=auto;html=1;" edge="1" parent="WIyWlLk6GJQsqaUBKTNV-1" source="16mwcuF6Vt4R83JFXZmN-26" target="16mwcuF6Vt4R83JFXZmN-27">
          <mxGeometry relative="1" as="geometry" />
        </mxCell>
        <mxCell id="16mwcuF6Vt4R83JFXZmN-23" value="Yes" style="edgeLabel;html=1;align=center;verticalAlign=middle;resizable=0;points=[];" vertex="1" connectable="0" parent="16mwcuF6Vt4R83JFXZmN-22">
          <mxGeometry x="0.1636" y="1" relative="1" as="geometry">
            <mxPoint x="-7" y="-14" as="offset" />
          </mxGeometry>
        </mxCell>
        <mxCell id="16mwcuF6Vt4R83JFXZmN-24" value="" style="edgeStyle=orthogonalEdgeStyle;rounded=0;orthogonalLoop=1;jettySize=auto;html=1;exitX=0.5;exitY=1;exitDx=0;exitDy=0;" edge="1" parent="WIyWlLk6GJQsqaUBKTNV-1" source="16mwcuF6Vt4R83JFXZmN-26" target="16mwcuF6Vt4R83JFXZmN-28">
          <mxGeometry relative="1" as="geometry">
            <Array as="points">
              <mxPoint x="380" y="670" />
            </Array>
          </mxGeometry>
        </mxCell>
        <mxCell id="16mwcuF6Vt4R83JFXZmN-25" value="No" style="edgeLabel;html=1;align=center;verticalAlign=middle;resizable=0;points=[];" vertex="1" connectable="0" parent="16mwcuF6Vt4R83JFXZmN-24">
          <mxGeometry x="-0.0833" y="3" relative="1" as="geometry">
            <mxPoint x="9" y="-7" as="offset" />
          </mxGeometry>
        </mxCell>
        <mxCell id="16mwcuF6Vt4R83JFXZmN-26" value="&lt;font style=&quot;font-size: 12px;&quot;&gt;Human&lt;br&gt;choose Paper?&lt;/font&gt;" style="rhombus;whiteSpace=wrap;html=1;shadow=0;fontFamily=Helvetica;fontSize=12;align=center;strokeWidth=1;spacing=6;spacingTop=-4;" vertex="1" parent="WIyWlLk6GJQsqaUBKTNV-1">
          <mxGeometry x="325" y="550" width="110" height="90" as="geometry" />
        </mxCell>
        <mxCell id="16mwcuF6Vt4R83JFXZmN-54" value="" style="edgeStyle=orthogonalEdgeStyle;rounded=0;orthogonalLoop=1;jettySize=auto;html=1;" edge="1" parent="WIyWlLk6GJQsqaUBKTNV-1" source="16mwcuF6Vt4R83JFXZmN-27" target="16mwcuF6Vt4R83JFXZmN-53">
          <mxGeometry relative="1" as="geometry" />
        </mxCell>
        <mxCell id="16mwcuF6Vt4R83JFXZmN-27" value="Tie" style="shape=parallelogram;perimeter=parallelogramPerimeter;whiteSpace=wrap;html=1;fixedSize=1;" vertex="1" parent="WIyWlLk6GJQsqaUBKTNV-1">
          <mxGeometry x="470" y="565" width="120" height="60" as="geometry" />
        </mxCell>
        <mxCell id="16mwcuF6Vt4R83JFXZmN-57" value="" style="edgeStyle=orthogonalEdgeStyle;rounded=0;orthogonalLoop=1;jettySize=auto;html=1;" edge="1" parent="WIyWlLk6GJQsqaUBKTNV-1" source="16mwcuF6Vt4R83JFXZmN-28" target="16mwcuF6Vt4R83JFXZmN-56">
          <mxGeometry relative="1" as="geometry" />
        </mxCell>
        <mxCell id="16mwcuF6Vt4R83JFXZmN-28" value="Computer&lt;br&gt;Wins" style="shape=parallelogram;perimeter=parallelogramPerimeter;whiteSpace=wrap;html=1;fixedSize=1;shadow=0;strokeWidth=1;spacing=6;spacingTop=-4;" vertex="1" parent="WIyWlLk6GJQsqaUBKTNV-1">
          <mxGeometry x="460" y="640" width="120" height="60" as="geometry" />
        </mxCell>
        <mxCell id="16mwcuF6Vt4R83JFXZmN-29" value="" style="edgeStyle=orthogonalEdgeStyle;rounded=0;orthogonalLoop=1;jettySize=auto;html=1;" edge="1" parent="WIyWlLk6GJQsqaUBKTNV-1" source="16mwcuF6Vt4R83JFXZmN-32" target="16mwcuF6Vt4R83JFXZmN-33">
          <mxGeometry relative="1" as="geometry" />
        </mxCell>
        <mxCell id="16mwcuF6Vt4R83JFXZmN-30" value="Yes" style="edgeLabel;html=1;align=center;verticalAlign=middle;resizable=0;points=[];" vertex="1" connectable="0" parent="16mwcuF6Vt4R83JFXZmN-29">
          <mxGeometry x="-0.4727" y="3" relative="1" as="geometry">
            <mxPoint y="-7" as="offset" />
          </mxGeometry>
        </mxCell>
        <mxCell id="16mwcuF6Vt4R83JFXZmN-31" value="" style="edgeStyle=orthogonalEdgeStyle;rounded=0;orthogonalLoop=1;jettySize=auto;html=1;" edge="1" parent="WIyWlLk6GJQsqaUBKTNV-1" source="16mwcuF6Vt4R83JFXZmN-32" target="16mwcuF6Vt4R83JFXZmN-38">
          <mxGeometry relative="1" as="geometry" />
        </mxCell>
        <mxCell id="16mwcuF6Vt4R83JFXZmN-32" value="&lt;font style=&quot;font-size: 12px;&quot;&gt;Human&lt;br&gt;choose Rock?&lt;/font&gt;" style="rhombus;whiteSpace=wrap;html=1;shadow=0;fontFamily=Helvetica;fontSize=12;align=center;strokeWidth=1;spacing=6;spacingTop=-4;" vertex="1" parent="WIyWlLk6GJQsqaUBKTNV-1">
          <mxGeometry x="325" y="700" width="110" height="90" as="geometry" />
        </mxCell>
        <mxCell id="16mwcuF6Vt4R83JFXZmN-59" value="" style="edgeStyle=orthogonalEdgeStyle;rounded=0;orthogonalLoop=1;jettySize=auto;html=1;" edge="1" parent="WIyWlLk6GJQsqaUBKTNV-1" source="16mwcuF6Vt4R83JFXZmN-33" target="16mwcuF6Vt4R83JFXZmN-58">
          <mxGeometry relative="1" as="geometry" />
        </mxCell>
        <mxCell id="16mwcuF6Vt4R83JFXZmN-33" value="Human Wins" style="shape=parallelogram;perimeter=parallelogramPerimeter;whiteSpace=wrap;html=1;fixedSize=1;" vertex="1" parent="WIyWlLk6GJQsqaUBKTNV-1">
          <mxGeometry x="470" y="715" width="120" height="60" as="geometry" />
        </mxCell>
        <mxCell id="16mwcuF6Vt4R83JFXZmN-34" value="" style="edgeStyle=orthogonalEdgeStyle;rounded=0;orthogonalLoop=1;jettySize=auto;html=1;" edge="1" parent="WIyWlLk6GJQsqaUBKTNV-1" source="16mwcuF6Vt4R83JFXZmN-38" target="16mwcuF6Vt4R83JFXZmN-39">
          <mxGeometry relative="1" as="geometry" />
        </mxCell>
        <mxCell id="16mwcuF6Vt4R83JFXZmN-35" value="Yes" style="edgeLabel;html=1;align=center;verticalAlign=middle;resizable=0;points=[];" vertex="1" connectable="0" parent="16mwcuF6Vt4R83JFXZmN-34">
          <mxGeometry x="0.1636" y="1" relative="1" as="geometry">
            <mxPoint x="-7" y="-14" as="offset" />
          </mxGeometry>
        </mxCell>
        <mxCell id="16mwcuF6Vt4R83JFXZmN-36" value="" style="edgeStyle=orthogonalEdgeStyle;rounded=0;orthogonalLoop=1;jettySize=auto;html=1;exitX=0.5;exitY=1;exitDx=0;exitDy=0;" edge="1" parent="WIyWlLk6GJQsqaUBKTNV-1" source="16mwcuF6Vt4R83JFXZmN-38" target="16mwcuF6Vt4R83JFXZmN-40">
          <mxGeometry relative="1" as="geometry">
            <Array as="points">
              <mxPoint x="380" y="935" />
            </Array>
          </mxGeometry>
        </mxCell>
        <mxCell id="16mwcuF6Vt4R83JFXZmN-37" value="No" style="edgeLabel;html=1;align=center;verticalAlign=middle;resizable=0;points=[];" vertex="1" connectable="0" parent="16mwcuF6Vt4R83JFXZmN-36">
          <mxGeometry x="-0.0833" y="3" relative="1" as="geometry">
            <mxPoint x="9" y="-7" as="offset" />
          </mxGeometry>
        </mxCell>
        <mxCell id="16mwcuF6Vt4R83JFXZmN-38" value="&lt;font style=&quot;font-size: 12px;&quot;&gt;Human&lt;br&gt;choose Scissors?&lt;/font&gt;" style="rhombus;whiteSpace=wrap;html=1;shadow=0;fontFamily=Helvetica;fontSize=12;align=center;strokeWidth=1;spacing=6;spacingTop=-4;" vertex="1" parent="WIyWlLk6GJQsqaUBKTNV-1">
          <mxGeometry x="325" y="815" width="110" height="90" as="geometry" />
        </mxCell>
        <mxCell id="16mwcuF6Vt4R83JFXZmN-62" value="" style="edgeStyle=orthogonalEdgeStyle;rounded=0;orthogonalLoop=1;jettySize=auto;html=1;" edge="1" parent="WIyWlLk6GJQsqaUBKTNV-1" source="16mwcuF6Vt4R83JFXZmN-39" target="16mwcuF6Vt4R83JFXZmN-61">
          <mxGeometry relative="1" as="geometry" />
        </mxCell>
        <mxCell id="16mwcuF6Vt4R83JFXZmN-39" value="Tie" style="shape=parallelogram;perimeter=parallelogramPerimeter;whiteSpace=wrap;html=1;fixedSize=1;" vertex="1" parent="WIyWlLk6GJQsqaUBKTNV-1">
          <mxGeometry x="470" y="830" width="120" height="60" as="geometry" />
        </mxCell>
        <mxCell id="16mwcuF6Vt4R83JFXZmN-64" value="" style="edgeStyle=orthogonalEdgeStyle;rounded=0;orthogonalLoop=1;jettySize=auto;html=1;" edge="1" parent="WIyWlLk6GJQsqaUBKTNV-1" source="16mwcuF6Vt4R83JFXZmN-40">
          <mxGeometry relative="1" as="geometry">
            <mxPoint x="660" y="935" as="targetPoint" />
          </mxGeometry>
        </mxCell>
        <mxCell id="16mwcuF6Vt4R83JFXZmN-40" value="Computer&lt;br&gt;Wins" style="shape=parallelogram;perimeter=parallelogramPerimeter;whiteSpace=wrap;html=1;fixedSize=1;shadow=0;strokeWidth=1;spacing=6;spacingTop=-4;" vertex="1" parent="WIyWlLk6GJQsqaUBKTNV-1">
          <mxGeometry x="460" y="905" width="120" height="60" as="geometry" />
        </mxCell>
        <mxCell id="16mwcuF6Vt4R83JFXZmN-43" value="End" style="rounded=1;whiteSpace=wrap;html=1;" vertex="1" parent="WIyWlLk6GJQsqaUBKTNV-1">
          <mxGeometry x="600" y="965" width="120" height="60" as="geometry" />
        </mxCell>
        <mxCell id="16mwcuF6Vt4R83JFXZmN-47" value="" style="edgeStyle=orthogonalEdgeStyle;rounded=0;orthogonalLoop=1;jettySize=auto;html=1;" edge="1" parent="WIyWlLk6GJQsqaUBKTNV-1" source="16mwcuF6Vt4R83JFXZmN-5" target="16mwcuF6Vt4R83JFXZmN-45">
          <mxGeometry relative="1" as="geometry">
            <mxPoint x="580" y="210" as="sourcePoint" />
            <mxPoint x="660" y="965" as="targetPoint" />
          </mxGeometry>
        </mxCell>
        <mxCell id="16mwcuF6Vt4R83JFXZmN-45" value="" style="shape=waypoint;sketch=0;size=6;pointerEvents=1;points=[];fillColor=default;resizable=0;rotatable=0;perimeter=centerPerimeter;snapToPoint=1;" vertex="1" parent="WIyWlLk6GJQsqaUBKTNV-1">
          <mxGeometry x="650" y="315" width="20" height="20" as="geometry" />
        </mxCell>
        <mxCell id="16mwcuF6Vt4R83JFXZmN-50" value="" style="edgeStyle=orthogonalEdgeStyle;rounded=0;orthogonalLoop=1;jettySize=auto;html=1;" edge="1" parent="WIyWlLk6GJQsqaUBKTNV-1" source="16mwcuF6Vt4R83JFXZmN-45" target="16mwcuF6Vt4R83JFXZmN-48">
          <mxGeometry relative="1" as="geometry">
            <mxPoint x="660" y="325" as="sourcePoint" />
            <mxPoint x="660" y="965" as="targetPoint" />
          </mxGeometry>
        </mxCell>
        <mxCell id="16mwcuF6Vt4R83JFXZmN-48" value="" style="shape=waypoint;sketch=0;size=6;pointerEvents=1;points=[];fillColor=default;resizable=0;rotatable=0;perimeter=centerPerimeter;snapToPoint=1;shadow=0;strokeWidth=1;spacing=6;spacingTop=-4;" vertex="1" parent="WIyWlLk6GJQsqaUBKTNV-1">
          <mxGeometry x="650" y="390" width="20" height="20" as="geometry" />
        </mxCell>
        <mxCell id="16mwcuF6Vt4R83JFXZmN-51" value="" style="shape=waypoint;sketch=0;size=6;pointerEvents=1;points=[];fillColor=default;resizable=0;rotatable=0;perimeter=centerPerimeter;snapToPoint=1;" vertex="1" parent="WIyWlLk6GJQsqaUBKTNV-1">
          <mxGeometry x="650" y="470" width="20" height="20" as="geometry" />
        </mxCell>
        <mxCell id="16mwcuF6Vt4R83JFXZmN-55" value="" style="edgeStyle=orthogonalEdgeStyle;rounded=0;orthogonalLoop=1;jettySize=auto;html=1;" edge="1" parent="WIyWlLk6GJQsqaUBKTNV-1" source="16mwcuF6Vt4R83JFXZmN-48" target="16mwcuF6Vt4R83JFXZmN-53">
          <mxGeometry relative="1" as="geometry">
            <mxPoint x="660" y="400" as="sourcePoint" />
            <mxPoint x="660" y="965" as="targetPoint" />
          </mxGeometry>
        </mxCell>
        <mxCell id="16mwcuF6Vt4R83JFXZmN-53" value="" style="shape=waypoint;sketch=0;size=6;pointerEvents=1;points=[];fillColor=default;resizable=0;rotatable=0;perimeter=centerPerimeter;snapToPoint=1;" vertex="1" parent="WIyWlLk6GJQsqaUBKTNV-1">
          <mxGeometry x="650" y="585" width="20" height="20" as="geometry" />
        </mxCell>
        <mxCell id="16mwcuF6Vt4R83JFXZmN-56" value="" style="shape=waypoint;sketch=0;size=6;pointerEvents=1;points=[];fillColor=default;resizable=0;rotatable=0;perimeter=centerPerimeter;snapToPoint=1;shadow=0;strokeWidth=1;spacing=6;spacingTop=-4;" vertex="1" parent="WIyWlLk6GJQsqaUBKTNV-1">
          <mxGeometry x="650" y="660" width="20" height="20" as="geometry" />
        </mxCell>
        <mxCell id="16mwcuF6Vt4R83JFXZmN-60" value="" style="edgeStyle=orthogonalEdgeStyle;rounded=0;orthogonalLoop=1;jettySize=auto;html=1;" edge="1" parent="WIyWlLk6GJQsqaUBKTNV-1" source="16mwcuF6Vt4R83JFXZmN-53" target="16mwcuF6Vt4R83JFXZmN-58">
          <mxGeometry relative="1" as="geometry">
            <mxPoint x="660" y="595" as="sourcePoint" />
            <mxPoint x="660" y="965" as="targetPoint" />
          </mxGeometry>
        </mxCell>
        <mxCell id="16mwcuF6Vt4R83JFXZmN-58" value="" style="shape=waypoint;sketch=0;size=6;pointerEvents=1;points=[];fillColor=default;resizable=0;rotatable=0;perimeter=centerPerimeter;snapToPoint=1;" vertex="1" parent="WIyWlLk6GJQsqaUBKTNV-1">
          <mxGeometry x="650" y="735" width="20" height="20" as="geometry" />
        </mxCell>
        <mxCell id="16mwcuF6Vt4R83JFXZmN-63" value="" style="edgeStyle=orthogonalEdgeStyle;rounded=0;orthogonalLoop=1;jettySize=auto;html=1;" edge="1" parent="WIyWlLk6GJQsqaUBKTNV-1" source="16mwcuF6Vt4R83JFXZmN-58" target="16mwcuF6Vt4R83JFXZmN-61">
          <mxGeometry relative="1" as="geometry">
            <mxPoint x="660" y="745" as="sourcePoint" />
            <mxPoint x="660" y="965" as="targetPoint" />
          </mxGeometry>
        </mxCell>
        <mxCell id="16mwcuF6Vt4R83JFXZmN-61" value="" style="shape=waypoint;sketch=0;size=6;pointerEvents=1;points=[];fillColor=default;resizable=0;rotatable=0;perimeter=centerPerimeter;snapToPoint=1;" vertex="1" parent="WIyWlLk6GJQsqaUBKTNV-1">
          <mxGeometry x="650" y="850" width="20" height="20" as="geometry" />
        </mxCell>
      </root>
    </mxGraphModel>
  </diagram>
</mxfile>
